<svg width="281" height="54" viewBox="0 0 281 54" fill="none" xmlns="http://www.w3.org/2000/svg">
<path d="M37.2423 8.2421C37.2423 8.2421 15.9289 8.2421 13.1245 8.2421C10.3201 8.2421 8.88991 10.4021 8.88991 13.4147C8.88991 16.4274 11.2176 17.9337 14.1902 17.9337C17.1629 17.9337 37.2703 17.9337 37.2703 17.9337V15.8021C37.2703 15.8021 17.1068 15.8021 14.6109 15.8021C12.115 15.8021 10.9091 15.1768 10.9091 12.8747C10.9091 10.5726 12.4515 10.4589 12.8161 10.4589C13.1806 10.4589 37.2703 10.4589 37.2703 10.4589V8.2421H37.2423Z" fill="#4E3E5F"/>
<path d="M38.7847 9.09474V9.57789C38.308 10.1463 37.2703 10.4305 37.2703 10.4305V8.2421C37.2423 8.2421 38.308 8.52631 38.7847 9.09474Z" fill="#528798"/>
<path d="M6.30987 19.9232C6.30987 19.9232 31.6335 19.9232 34.9988 19.9232C38.3641 19.9232 40.0467 22.4811 40.0467 26.0053C40.0467 29.5295 37.2704 31.3484 33.7368 31.3484C30.2033 31.3484 6.30987 31.3484 6.30987 31.3484V28.8189C6.30987 28.8189 30.2874 28.8189 33.232 28.8189C36.1766 28.8189 37.6349 28.08 37.6349 25.38C37.6349 22.68 35.8121 22.5095 35.3634 22.5095C34.9147 22.5095 6.28183 22.5095 6.28183 22.5095V19.9232H6.30987Z" fill="#C8505F"/>
<path d="M6.30987 19.9232V22.5095C6.30987 22.5095 5.07594 22.1684 4.51506 21.5147V20.8895C5.07594 20.2642 6.30987 19.9232 6.30987 19.9232Z" fill="#4E3E5F"/>
<path d="M42.0098 33.5368C42.0098 33.5368 13.6574 33.5368 9.89949 33.5368C6.14161 33.5368 4.51506 36.0663 4.51506 39.8463C4.51506 44.4789 7.3475 45.7579 11.3017 45.7579C15.2559 45.7579 42.0098 45.7579 42.0098 45.7579V43.0579C42.0098 43.0579 15.1717 43.0579 11.8626 43.0579C8.55338 43.0579 6.92684 42.2621 6.92684 39.3632C6.92684 36.4642 8.97404 36.2937 9.45079 36.2937C9.92754 36.2937 42.0098 36.2937 42.0098 36.2937V33.5368Z" fill="#3C848A"/>
<path d="M44.0009 34.56V35.2705C43.3559 35.9526 42.0098 36.2937 42.0098 36.2937V33.5368C42.0098 33.5368 43.3559 33.9063 44.0009 34.56Z" fill="#C8505F"/>
<path d="M36.0925 11.1411H13.3208V11.9653H36.0925V11.1411Z" fill="#383838"/>
<path d="M36.0925 12.6758H13.3208V13.5H36.0925V12.6758Z" fill="#383838"/>
<path d="M36.0925 14.2105H13.3208V15.0347H36.0925V14.2105Z" fill="#383838"/>
<path d="M34.8025 23.4474H7.71207V24.2716H34.8025V23.4474Z" fill="#383838"/>
<path d="M34.8025 25.1526H7.71207V25.9768H34.8025V25.1526Z" fill="#383838"/>
<path d="M34.8025 26.8011H7.71207V27.6253H34.8025V26.8011Z" fill="#383838"/>
<path d="M40.2991 37.4305H10.1799V38.2547H40.2991V37.4305Z" fill="#383838"/>
<path d="M40.2991 39.0221H10.1799V39.8463H40.2991V39.0221Z" fill="#383838"/>
<path d="M40.2991 41.0116H10.1799V41.8358H40.2991V41.0116Z" fill="#383838"/>
<path d="M39.3456 9.3221C39.2895 9.40737 39.0932 9.54947 38.7847 9.54947V9.09473C39.0932 9.12316 39.2895 9.26526 39.3456 9.3221Z" fill="#383838"/>
<path d="M44.7861 34.9295C44.702 35.0432 44.4496 35.2137 44.0289 35.2421C44.0009 35.2705 44.0009 35.2705 43.9728 35.2989V34.5884C44.0009 34.6168 44.0009 34.6168 44.0289 34.6453C44.4776 34.6453 44.73 34.8158 44.7861 34.9295Z" fill="#383838"/>
<path d="M4.51506 20.9179V21.5432L4.48702 21.5147C4.12245 21.4863 3.8981 21.3158 3.81396 21.2305C3.8981 21.1453 4.12245 20.9747 4.48702 20.9463C4.51506 20.9463 4.51506 20.9179 4.51506 20.9179Z" fill="#383838"/>
<path d="M103.23 26.7158C103.23 29.0463 102.865 31.2347 102.136 33.2526C101.407 35.2705 100.341 37.0042 98.9109 38.4537C97.5087 39.9032 95.7699 41.0116 93.6947 41.8074C91.6475 42.6032 89.3479 43.0011 86.8239 43.0011H76.8403C76.616 43.0011 76.4196 42.8021 76.4196 42.5747V12.8463C76.4196 12.6189 76.616 12.42 76.8403 12.42H87.3007C90.3575 12.42 92.7693 12.7042 94.5641 13.2726C96.3589 13.8411 97.9574 14.8642 99.3596 16.3137C100.341 17.3368 101.239 18.7295 102.024 20.4916C102.837 22.2253 103.23 24.3 103.23 26.7158ZM96.0504 27.1989C96.0504 26.0621 95.9102 24.9821 95.6297 23.9874C95.3493 22.9926 94.9006 22.0832 94.2556 21.2305C93.6106 20.4063 92.7412 19.7242 91.6475 19.2126C90.5257 18.701 89.1796 18.4453 87.5811 18.4453H83.6269C83.4026 18.4453 83.2063 18.6442 83.2063 18.8716V36.4642C83.2063 36.6916 83.4026 36.8905 83.6269 36.8905H86.1509C87.7213 36.8905 89.1235 36.6632 90.3575 36.2368C91.5914 35.8105 92.629 35.1853 93.4703 34.361C94.3117 33.5368 94.9567 32.5137 95.4054 31.2916C95.826 30.1263 96.0504 28.7337 96.0504 27.1989Z" fill="#333333"/>
<path d="M130.32 30.2684C130.32 33.2526 129.787 35.6968 128.694 37.601C127.6 39.5053 126.142 40.8695 124.319 41.6937C122.496 42.5179 120.449 42.9442 118.205 42.9442C115.905 42.9442 114.083 42.6316 112.765 42.0347C111.447 41.4379 110.325 40.6989 109.399 39.8179C108.474 38.9368 107.773 37.9705 107.268 36.8905C106.791 35.8389 106.455 34.6168 106.258 33.2526C106.062 31.8884 105.978 30.1547 105.978 28.0516V12.3347C105.978 12.1074 106.174 11.9084 106.399 11.9084H112.344C112.568 11.9084 112.765 12.1074 112.765 12.3347V29.7853C112.765 34.5316 114.559 36.9189 118.121 36.9189C119.972 36.9189 121.346 36.3505 122.243 35.2137C123.141 34.0768 123.561 32.7126 123.561 31.1495V12.3347C123.561 12.1074 123.758 11.9084 123.982 11.9084H129.899C130.124 11.9084 130.32 12.1074 130.32 12.3347V30.2684Z" fill="#333333"/>
<path d="M195.101 30.2684C195.101 33.2526 194.569 35.6968 193.475 37.601C192.381 39.5053 190.923 40.8695 189.1 41.6937C187.277 42.5179 185.23 42.9442 182.987 42.9442C180.687 42.9442 178.864 42.6316 177.546 42.0347C176.228 41.4379 175.106 40.6989 174.181 39.8179C173.255 38.9368 172.554 37.9705 172.049 36.8905C171.573 35.8389 171.236 34.6168 171.04 33.2526C170.844 31.8884 170.759 30.1547 170.759 28.0516V12.3347C170.759 12.1074 170.956 11.9084 171.18 11.9084H177.125C177.35 11.9084 177.546 12.1074 177.546 12.3347V29.7853C177.546 34.5316 179.341 36.9189 182.902 36.9189C184.753 36.9189 186.127 36.3505 187.025 35.2137C187.922 34.0768 188.343 32.7126 188.343 31.1495V12.3347C188.343 12.1074 188.539 11.9084 188.764 11.9084H194.681C194.905 11.9084 195.101 12.1074 195.101 12.3347V30.2684Z" fill="#333333"/>
<path d="M221.014 12.8463V18.2747C221.014 18.5021 220.818 18.7011 220.593 18.7011H207.02C206.796 18.7011 206.6 18.9 206.6 19.1274V23.6463C206.6 23.8737 206.796 24.0726 207.02 24.0726H219.864C220.089 24.0726 220.285 24.2716 220.285 24.4989V29.7C220.285 29.9274 220.089 30.1263 219.864 30.1263H207.02C206.796 30.1263 206.6 30.3253 206.6 30.5526V36.2937C206.6 36.521 206.796 36.72 207.02 36.72H220.593C220.818 36.72 221.014 36.9189 221.014 37.1463V42.5747C221.014 42.8021 220.818 43.0011 220.593 43.0011H199.925C199.701 43.0011 199.504 42.8021 199.504 42.5747V12.8463C199.504 12.6189 199.701 12.42 199.925 12.42H220.593C220.818 12.42 221.014 12.6189 221.014 12.8463Z" fill="#333333"/>
<path d="M71.9046 12.8463V18.2747C71.9046 18.5021 71.7083 18.7011 71.4839 18.7011H57.9107C57.6863 18.7011 57.49 18.9 57.49 19.1274V23.6463C57.49 23.8737 57.6863 24.0726 57.9107 24.0726H70.7548C70.9791 24.0726 71.1754 24.2716 71.1754 24.4989V29.7C71.1754 29.9274 70.9791 30.1263 70.7548 30.1263H57.9107C57.6863 30.1263 57.49 30.3253 57.49 30.5526V36.2937C57.49 36.521 57.6863 36.72 57.9107 36.72H71.4839C71.7083 36.72 71.9046 36.9189 71.9046 37.1463V42.5747C71.9046 42.8021 71.7083 43.0011 71.4839 43.0011H50.8156C50.5912 43.0011 50.3949 42.8021 50.3949 42.5747V12.8463C50.3949 12.6189 50.5912 12.42 50.8156 12.42H71.4839C71.7083 12.42 71.9046 12.6189 71.9046 12.8463Z" fill="#333333"/>
<path d="M247.824 18.3032C247.824 19.6389 246.394 20.4632 245.272 19.781C243.589 18.7579 241.29 17.7347 238.71 17.7347C236.074 17.7347 233.662 18.8147 233.662 20.6337C233.662 21.401 234.026 21.8558 234.391 22.0547C235.457 22.8505 238.429 23.4758 240.028 23.8453L240.785 24.0158C242.804 24.4705 249.731 26.0337 249.731 32.5705C249.731 38.5389 244.01 42.9158 236.663 42.9158C233.101 42.9158 229.96 41.9779 226.931 40.1589C226.427 39.8463 226.118 39.2779 226.118 38.6811V35.441C226.118 34.1053 227.604 33.2526 228.726 33.9632C232.007 36.0947 234.699 36.5779 236.606 36.5779C239.074 36.5779 242.159 35.2705 242.159 32.741C242.159 30.8084 240.224 29.9274 236.354 29.16C233.494 28.5916 226.146 27.0568 226.146 20.5768C226.146 14.4095 232.26 11.3968 238.261 11.3968C241.907 11.3968 244.683 12.5053 246.899 13.5568C247.488 13.8411 247.88 14.4379 247.88 15.12V18.3032H247.824Z" fill="#333333"/>
<path d="M277.158 12.8463V18.2747C277.158 18.5021 276.962 18.7011 276.737 18.7011H268.885C268.661 18.7011 268.464 18.9 268.464 19.1274V42.5463C268.464 42.7737 268.268 42.9726 268.044 42.9726H261.762C261.538 42.9726 261.341 42.7737 261.341 42.5463V19.0989C261.341 18.8716 261.145 18.6726 260.921 18.6726H253.124C252.9 18.6726 252.704 18.4737 252.704 18.2463V12.8463C252.704 12.6189 252.9 12.42 253.124 12.42H276.709C276.99 12.42 277.158 12.6189 277.158 12.8463Z" fill="#333333"/>
<path d="M151.185 42.9442C141.79 43.1716 134.751 36.0095 134.779 26.6874C134.807 17.1663 142.211 9.89052 151.577 10.2032C160.86 10.5158 167.899 17.7347 167.478 26.8295C165.459 26.8295 163.412 26.9147 161.393 26.7442C161 26.7158 160.439 25.7211 160.355 25.0958C159.57 20.6337 156.513 17.7347 151.942 17.2516C148.268 16.8537 144.286 19.1842 142.94 22.4242C141.117 26.8863 142.127 31.5474 145.632 34.1337C146.698 34.9295 148.044 35.5547 149.362 35.7253C150.82 35.9526 151.381 36.3789 151.269 37.8853C151.101 39.5337 151.185 41.1821 151.185 42.9442Z" fill="#333333"/>
<path d="M158.392 27C159.289 32.5989 161.196 34.6453 166.385 35.9242C166.917 36.0663 167.59 36.8621 167.646 37.4021C167.815 39.2495 167.703 41.0968 167.703 42.9158C158.7 43.3705 151.185 36.0663 151.297 27C153.596 27 155.924 27 158.392 27Z" fill="#333333"/>
</svg>
